<?xml version="1.0" standalone="no"?>
<!DOCTYPE svg PUBLIC "-//W3C//DTD SVG 1.1//EN" "http://www.w3.org/Graphics/SVG/1.1/DTD/svg11.dtd">
<svg xmlns="http://www.w3.org/2000/svg" xmlns:xlink="http://www.w3.org/1999/xlink" width="375" zoomAndPan="magnify" viewBox="0 0 375 374.999991" height="375" preserveAspectRatio="xMidYMid meet" version="1.0"><defs><g/><clipPath id="5d1a717e9d"><path d="M 289.550781 139.46875 L 346.457031 139.46875 L 346.457031 196.375 L 289.550781 196.375 Z M 289.550781 139.46875 " clip-rule="nonzero"/></clipPath><clipPath id="e4e5d89c07"><path d="M 318.003906 139.46875 C 302.289062 139.46875 289.550781 152.210938 289.550781 167.921875 C 289.550781 183.636719 302.289062 196.375 318.003906 196.375 C 333.71875 196.375 346.457031 183.636719 346.457031 167.921875 C 346.457031 152.210938 333.71875 139.46875 318.003906 139.46875 Z M 318.003906 139.46875 " clip-rule="nonzero"/></clipPath></defs><g fill="#000000" fill-opacity="1"><g transform="translate(12.343273, 302.856514)"><g><path d="M 99.265625 0 L 99.265625 -119.953125 C 99.265625 -127.304688 97.65625 -133.28125 94.4375 -137.875 C 91.226562 -142.46875 87.628906 -145.910156 83.640625 -148.203125 C 79.660156 -150.503906 76.0625 -152.113281 72.84375 -153.03125 C 69.625 -153.957031 68.015625 -154.421875 68.015625 -154.421875 C 87.015625 -158.710938 103.023438 -158.632812 116.046875 -154.1875 C 129.066406 -149.75 138.945312 -142.703125 145.6875 -133.046875 C 152.425781 -123.398438 155.796875 -112.90625 155.796875 -101.5625 L 155.796875 0 Z M 45.03125 -91.921875 C 37.375 -91.921875 30.785156 -94.675781 25.265625 -100.1875 C 19.753906 -105.695312 17 -112.285156 17 -119.953125 C 17 -127.609375 19.753906 -134.117188 25.265625 -139.484375 C 30.785156 -144.847656 37.375 -147.53125 45.03125 -147.53125 C 52.695312 -147.53125 59.285156 -144.847656 64.796875 -139.484375 C 70.316406 -134.117188 73.078125 -127.609375 73.078125 -119.953125 C 73.078125 -112.285156 70.316406 -105.695312 64.796875 -100.1875 C 59.285156 -94.675781 52.695312 -91.921875 45.03125 -91.921875 Z M 60.203125 4.140625 C 53.460938 5.359375 46.644531 5.582031 39.75 4.8125 C 32.851562 4.050781 26.957031 1.222656 22.0625 -3.671875 C 16.238281 -9.804688 12.941406 -17.316406 12.171875 -26.203125 C 11.410156 -35.085938 13.019531 -43.050781 17 -50.09375 C 20.675781 -57.144531 25.882812 -63.039062 32.625 -67.78125 C 39.363281 -72.53125 46.566406 -76.132812 54.234375 -78.59375 C 58.210938 -79.8125 62.113281 -80.570312 65.9375 -80.875 C 69.769531 -81.1875 73.679688 -81.34375 77.671875 -81.34375 C 73.992188 -78.28125 70.238281 -73.757812 66.40625 -67.78125 C 62.582031 -61.8125 59.75 -55.300781 57.90625 -48.25 C 56.070312 -41.207031 56.070312 -34.160156 57.90625 -27.109375 C 59.75 -20.367188 63.65625 -15.160156 69.625 -11.484375 C 75.601562 -7.804688 81.960938 -6.582031 88.703125 -7.8125 C 85.023438 -4.75 80.503906 -2.222656 75.140625 -0.234375 C 69.773438 1.753906 64.796875 3.210938 60.203125 4.140625 Z M 60.203125 4.140625 "/></g></g></g><g fill="#000000" fill-opacity="1"><g transform="translate(169.044514, 304.160397)"><g><path d="M 19.296875 -241.734375 L 76.296875 -241.734375 L 76.296875 0 L 19.296875 0 Z M 109.375 -116.734375 L 192.109375 0 L 124.546875 0 L 76.296875 -70.78125 Z M 109.375 -116.734375 "/></g></g></g><g clip-path="url(#5d1a717e9d)"><g clip-path="url(#e4e5d89c07)"><path fill="#f0be15" d="M 289.550781 139.46875 L 346.457031 139.46875 L 346.457031 196.375 L 289.550781 196.375 Z M 289.550781 139.46875 " fill-opacity="1" fill-rule="nonzero"/></g></g></svg>