<?xml version="1.0" standalone="no"?>
<!DOCTYPE svg PUBLIC "-//W3C//DTD SVG 1.1//EN" "http://www.w3.org/Graphics/SVG/1.1/DTD/svg11.dtd">
<svg xmlns="http://www.w3.org/2000/svg" xmlns:xlink="http://www.w3.org/1999/xlink" width="375" zoomAndPan="magnify" viewBox="0 0 375 374.999991" height="375" preserveAspectRatio="xMidYMid meet" version="1.0">
	<defs>
		<g />
		<clipPath id="c004224a7c">
			<path d="M 258.132812 108.125 L 301.558594 108.125 L 301.558594 151.546875 L 258.132812 151.546875 Z M 258.132812 108.125 " clip-rule="nonzero" />
		</clipPath>
		<clipPath id="827828cdbc">
			<path d="M 279.84375 108.125 C 267.855469 108.125 258.132812 117.84375 258.132812 129.835938 C 258.132812 141.824219 267.855469 151.546875 279.84375 151.546875 C 291.835938 151.546875 301.558594 141.824219 301.558594 129.835938 C 301.558594 117.84375 291.835938 108.125 279.84375 108.125 Z M 279.84375 108.125 " clip-rule="nonzero" />
		</clipPath>
	</defs>
	<g fill="#000000" fill-opacity="1">
		<g transform="translate(46.602522, 232.799087)">
			<g>
				<path d="M 75.75 0 L 75.75 -91.53125 C 75.75 -97.144531 74.519531 -101.703125 72.0625 -105.203125 C 69.613281 -108.710938 66.867188 -111.34375 63.828125 -113.09375 C 60.785156 -114.851562 58.035156 -116.082031 55.578125 -116.78125 C 53.128906 -117.476562 51.90625 -117.828125 51.90625 -117.828125 C 66.394531 -121.097656 78.609375 -121.039062 88.546875 -117.65625 C 98.484375 -114.269531 106.023438 -108.894531 111.171875 -101.53125 C 116.316406 -94.164062 118.890625 -86.15625 118.890625 -77.5 L 118.890625 0 Z M 34.375 -70.140625 C 28.519531 -70.140625 23.488281 -72.242188 19.28125 -76.453125 C 15.070312 -80.660156 12.96875 -85.6875 12.96875 -91.53125 C 12.96875 -97.375 15.070312 -102.34375 19.28125 -106.4375 C 23.488281 -110.53125 28.519531 -112.578125 34.375 -112.578125 C 40.21875 -112.578125 45.242188 -110.53125 49.453125 -106.4375 C 53.660156 -102.34375 55.765625 -97.375 55.765625 -91.53125 C 55.765625 -85.6875 53.660156 -80.660156 49.453125 -76.453125 C 45.242188 -72.242188 40.21875 -70.140625 34.375 -70.140625 Z M 45.9375 3.15625 C 40.789062 4.09375 35.585938 4.269531 30.328125 3.6875 C 25.066406 3.101562 20.566406 0.9375 16.828125 -2.8125 C 12.390625 -7.476562 9.878906 -13.203125 9.296875 -19.984375 C 8.710938 -26.765625 9.9375 -32.84375 12.96875 -38.21875 C 15.78125 -43.601562 19.753906 -48.101562 24.890625 -51.71875 C 30.035156 -55.34375 35.53125 -58.09375 41.375 -59.96875 C 44.414062 -60.90625 47.394531 -61.488281 50.3125 -61.71875 C 53.238281 -61.957031 56.222656 -62.078125 59.265625 -62.078125 C 56.460938 -59.734375 53.597656 -56.28125 50.671875 -51.71875 C 47.753906 -47.164062 45.59375 -42.195312 44.1875 -36.8125 C 42.78125 -31.4375 42.78125 -26.0625 44.1875 -20.6875 C 45.59375 -15.539062 48.570312 -11.566406 53.125 -8.765625 C 57.6875 -5.960938 62.539062 -5.03125 67.6875 -5.96875 C 64.875 -3.625 61.421875 -1.691406 57.328125 -0.171875 C 53.242188 1.347656 49.445312 2.457031 45.9375 3.15625 Z M 45.9375 3.15625 " />
			</g>
		</g>
	</g>
	<g fill="#000000" fill-opacity="1">
		<g transform="translate(166.17729, 233.79402)">
			<g>
				<path d="M 14.734375 -184.46875 L 58.21875 -184.46875 L 58.21875 0 L 14.734375 0 Z M 83.46875 -89.078125 L 146.59375 0 L 95.03125 0 L 58.21875 -54 Z M 83.46875 -89.078125 " />
			</g>
		</g>
	</g>
	<g clip-path="url(#c004224a7c)">
		<g clip-path="url(#827828cdbc)">
			<path fill="#f0be15" d="M 258.132812 108.125 L 301.558594 108.125 L 301.558594 151.546875 L 258.132812 151.546875 Z M 258.132812 108.125 " fill-opacity="1" fill-rule="nonzero" />
		</g>
	</g>
	<g fill="#000000" fill-opacity="1">
		<g transform="translate(35.856262, 301.121343)">
			<g>
				<path d="M 20.8125 -7.03125 L 6.140625 -7.03125 L 2.96875 0 L 0.078125 0 L 12.109375 -26.34375 L 14.859375 -26.34375 L 26.90625 0 L 23.96875 0 Z M 19.796875 -9.296875 L 13.46875 -23.4375 L 7.15625 -9.296875 Z M 19.796875 -9.296875 " />
			</g>
		</g>
	</g>
	<g fill="#000000" fill-opacity="1">
		<g transform="translate(68.851781, 301.121343)">
			<g>
				<path d="M 26.296875 -26.34375 L 26.296875 0 L 24 0 L 7.078125 -21.375 L 7.078125 0 L 4.296875 0 L 4.296875 -26.34375 L 6.578125 -26.34375 L 23.546875 -4.96875 L 23.546875 -26.34375 Z M 26.296875 -26.34375 " />
			</g>
		</g>
	</g>
	<g fill="#000000" fill-opacity="1">
		<g transform="translate(105.458747, 301.121343)">
			<g>
				<path d="M 14.90625 0.21875 C 11.488281 0.21875 8.828125 -0.753906 6.921875 -2.703125 C 5.015625 -4.660156 4.0625 -7.507812 4.0625 -11.25 L 4.0625 -26.34375 L 6.84375 -26.34375 L 6.84375 -11.359375 C 6.84375 -8.296875 7.53125 -6.007812 8.90625 -4.5 C 10.289062 -3 12.289062 -2.25 14.90625 -2.25 C 17.53125 -2.25 19.53125 -3 20.90625 -4.5 C 22.289062 -6.007812 22.984375 -8.296875 22.984375 -11.359375 L 22.984375 -26.34375 L 25.703125 -26.34375 L 25.703125 -11.25 C 25.703125 -7.507812 24.753906 -4.660156 22.859375 -2.703125 C 20.960938 -0.753906 18.3125 0.21875 14.90625 0.21875 Z M 14.90625 0.21875 " />
			</g>
		</g>
	</g>
	<g fill="#000000" fill-opacity="1">
		<g transform="translate(141.275713, 301.121343)">
			<g>
				<path d="M 14.140625 -26.34375 C 17.503906 -26.34375 20.140625 -25.535156 22.046875 -23.921875 C 23.953125 -22.316406 24.90625 -20.113281 24.90625 -17.3125 C 24.90625 -14.5 23.953125 -12.296875 22.046875 -10.703125 C 20.140625 -9.109375 17.503906 -8.3125 14.140625 -8.3125 L 7.078125 -8.3125 L 7.078125 0 L 4.296875 0 L 4.296875 -26.34375 Z M 14.078125 -10.765625 C 16.679688 -10.765625 18.671875 -11.332031 20.046875 -12.46875 C 21.429688 -13.613281 22.125 -15.226562 22.125 -17.3125 C 22.125 -19.4375 21.429688 -21.066406 20.046875 -22.203125 C 18.671875 -23.347656 16.679688 -23.921875 14.078125 -23.921875 L 7.078125 -23.921875 L 7.078125 -10.765625 Z M 14.078125 -10.765625 " />
			</g>
		</g>
	</g>
	<g fill="#000000" fill-opacity="1">
		<g transform="translate(174.308867, 301.121343)">
			<g>
				<path d="M 20.8125 -7.03125 L 6.140625 -7.03125 L 2.96875 0 L 0.078125 0 L 12.109375 -26.34375 L 14.859375 -26.34375 L 26.90625 0 L 23.96875 0 Z M 19.796875 -9.296875 L 13.46875 -23.4375 L 7.15625 -9.296875 Z M 19.796875 -9.296875 " />
			</g>
		</g>
	</g>
	<g fill="#000000" fill-opacity="1">
		<g transform="translate(207.304386, 301.121343)">
			<g>
				<path d="M 31.640625 -26.34375 L 31.640625 0 L 28.96875 0 L 28.96875 -21.0625 L 18.625 -3.34375 L 17.3125 -3.34375 L 6.953125 -20.953125 L 6.953125 0 L 4.296875 0 L 4.296875 -26.34375 L 6.578125 -26.34375 L 18.015625 -6.8125 L 29.34375 -26.34375 Z M 31.640625 -26.34375 " />
			</g>
		</g>
	</g>
	<g fill="#000000" fill-opacity="1">
		<g transform="translate(249.253291, 301.121343)">
			<g />
		</g>
	</g>
	<g fill="#000000" fill-opacity="1">
		<g transform="translate(265.132079, 301.121343)">
			<g>
				<path d="M 12.453125 -12.375 L 7.078125 -6.921875 L 7.078125 0 L 4.296875 0 L 4.296875 -26.34375 L 7.078125 -26.34375 L 7.078125 -10.421875 L 22.53125 -26.34375 L 25.734375 -26.34375 L 14.328125 -14.40625 L 26.53125 0 L 23.21875 0 Z M 12.453125 -12.375 " />
			</g>
		</g>
	</g>
	<g fill="#000000" fill-opacity="1">
		<g transform="translate(297.901894, 301.121343)">
			<g>
				<path d="M 22.28125 0 L 16.25 -8.46875 C 15.570312 -8.394531 14.867188 -8.359375 14.140625 -8.359375 L 7.078125 -8.359375 L 7.078125 0 L 4.296875 0 L 4.296875 -26.34375 L 14.140625 -26.34375 C 17.503906 -26.34375 20.140625 -25.535156 22.046875 -23.921875 C 23.953125 -22.316406 24.90625 -20.113281 24.90625 -17.3125 C 24.90625 -15.25 24.382812 -13.507812 23.34375 -12.09375 C 22.300781 -10.675781 20.816406 -9.65625 18.890625 -9.03125 L 25.328125 0 Z M 14.078125 -10.71875 C 16.679688 -10.71875 18.671875 -11.296875 20.046875 -12.453125 C 21.429688 -13.609375 22.125 -15.226562 22.125 -17.3125 C 22.125 -19.4375 21.429688 -21.066406 20.046875 -22.203125 C 18.671875 -23.347656 16.679688 -23.921875 14.078125 -23.921875 L 7.078125 -23.921875 L 7.078125 -10.71875 Z M 14.078125 -10.71875 " />
			</g>
		</g>
	</g>
	<g fill="#000000" fill-opacity="1">
		<g transform="translate(331.12314, 301.121343)">
			<g>
				<path d="M 3.984375 0.1875 C 3.429688 0.1875 2.960938 -0.0078125 2.578125 -0.40625 C 2.191406 -0.8125 2 -1.300781 2 -1.875 C 2 -2.457031 2.191406 -2.941406 2.578125 -3.328125 C 2.960938 -3.710938 3.429688 -3.90625 3.984375 -3.90625 C 4.535156 -3.90625 5.007812 -3.710938 5.40625 -3.328125 C 5.8125 -2.941406 6.015625 -2.457031 6.015625 -1.875 C 6.015625 -1.300781 5.8125 -0.8125 5.40625 -0.40625 C 5.007812 -0.0078125 4.535156 0.1875 3.984375 0.1875 Z M 3.984375 0.1875 " />
			</g>
		</g>
	</g>
</svg>
